<svg width="93" height="58" viewBox="0 0 93 58" fill="none" xmlns="http://www.w3.org/2000/svg">
<path d="M19.5046 15.5821C18.2796 24.4835 17.1678 31.2959 16.1313 36.0571H16.0371C14.6426 27.3627 13.493 21.3219 12.5696 17.9533L10.7416 18.2167C11.062 24.9351 11.2128 30.1291 11.2128 33.78V34.8715L11.1185 36.8663C9.27173 36.5088 7.63222 36.3206 6.2 36.3206H5.37082L3.0152 36.6029C0.998784 37.2615 0 38.4659 0 40.2349C0.018845 40.8748 0.207295 41.5334 0.546505 42.2297C2.18602 45.3348 6.84073 46.878 14.4918 46.878C22.2936 46.878 29.6432 45.4478 36.5404 42.6061C38.8584 41.6087 40.7052 40.3666 42.0809 38.8799V38.7859H42.0055C41.1198 39.6703 39.1599 40.6301 36.1635 41.684C28.0979 43.867 21.1818 44.9585 15.3964 44.9585H13.5684C11.7216 44.9585 9.81824 44.7703 7.83951 44.4127C3.90091 43.6223 1.92219 42.2297 1.92219 40.2349V39.9714L1.99757 39.5951C1.99757 38.7858 3.22249 38.3154 5.6535 38.146C7.06687 38.146 8.8383 38.3342 10.9301 38.6918V38.9552L10.8359 39.9714V40.0467H10.9301L11.2128 38.8799C11.8158 38.8799 12.8146 39.0681 14.2091 39.4257C14.6426 39.4257 14.8498 39.7644 14.8498 40.4231C14.8498 40.6677 15.4529 40.7807 16.6778 40.7807L16.8474 40.1408C19.3538 40.8748 21.7283 41.7216 23.952 42.7002L25.6857 43.6035C26.3076 43.3777 26.6091 42.9825 26.6091 42.4179V42.3238L26.138 41.7781L21.9544 19.4023C21.6152 16.8618 21.3702 15.5821 21.2195 15.5821H19.5046ZM17.4881 38.3342C18.2796 35.0409 19.1088 30.8066 19.9568 25.5938C20.2395 23.0532 20.4468 21.7735 20.5976 21.7735C21.1441 25.2362 22.2936 31.5029 24.0462 40.5925V40.6866C22.0863 39.8962 19.9003 39.1434 17.4881 38.4095V38.3342ZM12.7581 27.5886L14.3976 37.5062L11.7593 36.9604H11.665C12.1362 34.194 12.4754 31.0701 12.6638 27.5886H12.7581ZM42.2693 38.5977H42.3635V38.4095H42.2693V38.5977ZM50.8249 1.22323C49.1854 1.07268 48.1678 1.41142 47.7532 2.25827C47.2821 3.19922 47.3574 4.32836 47.9982 5.62687L48.0359 5.53277C47.8097 4.53537 47.8851 3.66969 48.262 2.91694L48.2997 2.84166C48.9593 1.91953 49.8073 1.67489 50.8438 2.12654C52.8979 3.01103 53.3878 4.93056 52.3514 7.8475L51.6918 9.14601C50.1842 12.1382 47.1878 14.7729 42.7216 17.0688L39.4049 18.5743C32.4699 20.9455 28.2109 23.6931 26.6468 26.7982C24.9884 30.0915 25.1015 33.8929 26.986 38.2025L27.0237 38.1084C26.138 33.2719 26.2511 29.7339 27.4006 27.4568L27.9094 26.4406C29.4359 24.0883 33.0353 21.8676 38.7076 19.7411C45.8498 17.1441 50.5422 13.6061 52.7848 9.14601L53.0109 8.69435L53.6517 7.17002C54.1416 4.15899 53.4067 2.23945 51.4657 1.3926L50.8249 1.22323Z" fill="url(#paint0_linear_1151_251)"/>
<path d="M34.1471 25.5749C33.5252 25.5749 33.0541 26.3842 32.7337 28.0026C32.1495 27.2687 31.603 26.9111 31.1319 26.9111H30.6043C30.2085 26.9299 29.7939 27.1181 29.3793 27.5133C27.6456 29.1129 26.3453 32.9896 25.4784 39.1622V39.6515C25.7611 41.1006 26.3641 41.8345 27.2498 41.8345H27.3441C28.8894 41.8345 30.6231 41.0253 32.5641 39.4069H32.6395C33.1672 41.4205 33.9398 42.4367 34.9386 42.4367C35.5982 42.4367 36.1258 42.0415 36.5404 41.2323V41.1006C36.107 41.4958 35.7112 41.7028 35.3909 41.7028H34.9386C34.2413 41.7028 33.7325 40.8183 33.431 39.0493V38.9176L34.3167 37.4685C35.3155 36.2641 35.8243 34.5704 35.8243 32.3686V32.1239C35.504 27.7579 34.9574 25.5749 34.1471 25.5749ZM34.0529 28.7177C34.2225 29.8657 34.3544 31.1642 34.4109 32.6132C34.3733 33.6671 34.279 34.194 34.1471 34.194C34.1471 33.0084 33.9775 31.7099 33.6195 30.2985L33.9775 28.7177H34.0529ZM26.7033 37.939C28.0036 31.8793 29.3416 28.8494 30.6796 28.8494H30.9812C31.5465 28.8494 32.0365 29.5457 32.4322 30.9195C32.338 30.9195 32.2438 32.0487 32.1495 34.3069C32.2061 35.9066 32.3003 36.9228 32.4322 37.3368C30.3593 39.0493 28.5878 39.8962 27.0991 39.8962H26.7976C26.6845 39.8962 26.5903 39.6892 26.5149 39.2751L26.7033 37.939Z" fill="url(#paint1_linear_1151_251)"/>
<path d="M49.0535 0C48.7708 0 48.5635 0.677482 48.4693 2.01363L48.9404 7.47112V7.58404H48.8274C48.3374 5.81505 47.9039 4.78001 47.527 4.49773C48.4693 7.97923 48.9404 10.6703 48.9404 12.5899V13.4179C48.9404 19.0071 48.2432 24.4082 46.8298 29.621H46.7167C46.0006 28.1155 45.1714 27.3628 44.248 27.3628C43.4 27.3628 42.307 28.0779 40.969 29.4893C37.5957 34.2693 35.9185 38.0331 35.9185 40.7807L36.0316 41.9663C36.4839 43.3965 37.3131 44.1116 38.5003 44.1116C40.1775 44.1116 42.0432 42.719 44.135 39.9526C42.5708 45.8241 41.0067 50.2654 39.4426 53.2576C37.803 55.403 36.9739 56.6639 36.9739 57.059C36.9739 57.6801 37.1623 58 37.5392 58L38.4815 57.6424L41.1198 53.5775C43.3246 50.7923 45.6237 48.7223 48.0547 47.3861C53.3502 44.5821 57.7787 43.1895 61.3781 43.1895L62.2073 43.3212C63.5641 44.074 64.431 45.316 64.7891 47.0662C64.5441 49.8702 64.7702 51.8274 65.4863 52.9001H65.8444C66.6924 52.9001 67.2578 52.0532 67.5216 50.3595V49.5126C67.5216 47.2167 66.8808 45.4478 65.5994 44.2245C64.6948 43.0389 63.2815 42.4367 61.3781 42.4367L57.8541 42.7943C52.4456 43.7917 47.6024 45.9371 43.3058 49.2115H43.1927L43.3058 49.0986C48.0736 34.3446 50.4669 24.1635 50.4669 18.5367L50.3538 15.7891V10.5762C50.3538 4.72356 49.9204 1.20441 49.0535 0ZM39.7818 33.8929C41.7039 30.4114 43.155 28.6613 44.135 28.6613H44.6061C45.5295 29.3576 46.0006 30.3738 46.0006 31.7476V32.4627C46.0006 33.2719 45.8122 33.9494 45.4164 34.4763C43.9088 35.9818 42.4577 36.7346 41.0821 36.7346C40.0644 36.6405 39.5556 36.2453 39.5556 35.549L39.7818 33.8929ZM37.5581 39.2375C37.9538 37.5814 38.4626 36.2641 39.0845 35.3043V35.549C39.2541 36.8099 40.0079 37.4497 41.3082 37.4497C42.2881 37.3556 43.3435 36.998 44.4742 36.377H44.6061V36.5088C42.1751 40.6301 40.1775 42.6814 38.6134 42.6814H38.5003C37.7277 42.6814 37.3319 42.1168 37.3319 41.0065L37.5581 39.2375ZM34.6182 20.9455C34.6182 21.0396 34.8255 21.1525 35.2213 21.2466C38.9714 22.7709 41.4967 24.0318 42.7593 25.0668L44.9453 26.9864L45.1714 26.8923V26.6664C43.5508 24.9916 41.7982 23.6931 39.8948 22.7709C37.0869 21.5477 35.3155 20.9455 34.6182 20.9455ZM39.1222 21.0396L39.1976 21.1149C39.3483 21.1149 39.4237 21.1713 39.4237 21.2654C41.1763 22.1875 42.7216 23.2979 44.0973 24.634C45.1337 26.0454 45.7179 26.7605 45.831 26.7605C46.076 26.6476 46.2079 26.5159 46.2079 26.3842V26.3089L45.9818 25.9325C45.0772 24.5964 44.0973 23.5425 43.0419 22.8086C42.0432 21.9053 40.724 21.2654 39.1222 20.889V21.0396Z" fill="url(#paint2_linear_1151_251)"/>
<path d="M55.197 30.9948C52.2195 31.3147 50.7307 31.7476 50.7307 32.331V32.5191L51.0888 32.6132L55.2912 32.331L56.7422 32.425C57.6657 32.425 58.4948 32.0487 59.2109 31.2771C59.2109 31.0324 58.6644 30.9007 57.5714 30.9007L55.197 30.9948Z" fill="url(#paint3_linear_1151_251)"/>
<path d="M71.479 10.4257C69.9337 10.4257 68.5392 11.2726 67.2766 12.9474L65.0906 14.6223C61.9435 17.6522 60.3793 21.4536 60.3793 26.0266C60.3793 28.5295 60.8316 31.1454 61.7173 33.9117C64.186 40.5172 67.5404 44.9396 71.7994 47.1791L72.817 46.8404C74.1362 44.6762 75.0973 43.5659 75.6815 43.4906C77.8109 40.4984 78.8663 37.3556 78.8663 34.0811L78.5271 31.4088C78.5271 30.1668 77.6225 27.4757 75.8322 23.3543V19.647C75.8322 17.9721 75.7192 16.6171 75.5119 15.6197C74.89 12.157 73.5331 10.4257 71.479 10.4257ZM68.2754 14.1142C69.2553 12.7781 70.3295 12.1006 71.479 12.1006H71.6486C73.4389 12.1006 74.3246 15.0175 74.3246 20.8326H73.9854V20.6632L73.4954 19.8164C71.1587 16.9371 69.4249 15.0928 68.2754 14.2836V14.1142ZM68.445 16.4666C70.9325 19.1012 72.8924 21.623 74.3246 24.013L74.8334 34.2505C74.8334 39.5386 73.8158 43.2459 71.7994 45.3348H71.479L71.3094 45.1655C65.1471 39.8585 62.0565 33.5918 62.0565 26.3653V25.8572C62.0565 22.1123 63.1307 19.1012 65.2602 16.8053H65.4298C64.7514 18.8189 64.4122 21.3971 64.4122 24.5211V25.1986C64.4122 28.3037 64.8644 31.6723 65.7502 35.2667C66.9374 38.8047 67.8796 40.7618 68.6146 41.1382C66.8243 36.8851 65.9198 31.5782 65.9198 25.1986C65.9198 21.5853 66.4286 18.3861 67.4462 15.6197L68.445 16.4666ZM76.341 28.8871C77.0195 30.9007 77.3587 32.9143 77.3587 34.928C77.3587 37.8073 76.6802 40.536 75.3423 43.1518H75.003C75.8888 40.9124 76.341 38.2213 76.341 35.0973V32.2369L76.1714 28.8871H76.341ZM61.2839 9.42829C61.1708 10.0117 61.0954 10.3128 61.0389 10.3128C61.0389 10.6703 60.5866 10.9338 59.6632 11.0844V11.1408C60.3228 11.3102 60.7374 11.4419 60.9258 11.5737C61.0954 11.9689 61.2085 12.364 61.2839 12.7969H61.3781C61.3781 12.5146 61.51 12.0629 61.7739 11.4796L62.3015 11.2914C62.7915 11.2349 63.0365 11.1785 63.0365 11.0844L61.8681 10.8021C61.7362 10.8021 61.5477 10.3504 61.3216 9.42829H61.2839ZM79.017 44.9585C78.8474 45.8806 78.7155 46.3511 78.6213 46.3511C78.6213 46.9156 77.9052 47.3297 76.473 47.5743V47.6496C77.5094 47.913 78.169 48.1389 78.4705 48.3459C78.7343 48.9669 78.9228 49.6067 79.017 50.2654H79.1678C79.1678 49.8138 79.3751 49.1175 79.7897 48.1953L80.6377 47.8754C81.4103 47.8189 81.7872 47.706 81.7872 47.5743L79.9404 47.1226C79.7331 47.1226 79.4505 46.4075 79.0924 44.9585H79.017Z" fill="url(#paint4_linear_1151_251)"/>
<path d="M83.4079 24.3894C83.2006 24.634 83.0498 24.9539 82.9933 25.3491C81.4292 28.2472 79.4128 30.6372 76.9818 32.5003C76.9818 32.6697 77.1891 32.7826 77.6036 32.8579C78.4517 32.8579 79.2808 32.425 80.0912 31.5594C81.203 30.4114 81.7495 29.7339 81.7495 29.5269H81.9568L79.6766 41.1006L80.7131 41.5711C82.6541 37.8261 84.7082 33.4601 86.9131 28.4542H87.0261V28.6801C86.065 37.8637 85.5751 42.9637 85.5751 43.9611L85.6693 46.1064C86.1781 48.8163 86.9884 50.1713 88.0626 50.1713H88.7787C90.0225 49.0798 90.6444 47.8942 90.6444 46.5957V46.2382H90.5502C89.9283 48.4588 89.2122 49.5691 88.3641 49.5691C87.3277 49.5691 86.7058 48.2894 86.4985 45.7489V44.3186L86.6115 42.2862C87.7799 34.4387 88.3641 28.9059 88.3641 25.7067V25.3491L88.4772 25.2174L87.2334 24.8598L82.0511 36.2077H81.9568V36.0947C82.8425 30.6937 83.6717 27.024 84.4444 25.1045C84.4444 24.7846 84.1052 24.5399 83.4079 24.3894ZM74.6073 43.2459C74.5131 43.7917 74.4377 44.0552 74.3811 44.0552C74.3811 44.3751 73.9666 44.6197 73.1374 44.7515V44.8079C73.7404 44.9585 74.1173 45.0902 74.2869 45.2031C74.4377 45.5607 74.5508 45.9182 74.6073 46.3134H74.7015C74.7015 46.05 74.8146 45.6548 75.0596 45.109L75.5495 44.9396C75.983 44.902 76.2091 44.8456 76.2091 44.7515L75.1349 44.488C75.0219 44.488 74.8523 44.074 74.645 43.2459H74.6073ZM90.5878 20.2868C90.4371 21.096 90.324 21.4912 90.2486 21.4912C90.2486 21.9805 89.6267 22.3381 88.383 22.5639V22.6204C89.2687 22.8462 89.8529 23.0532 90.1167 23.2226C90.3429 23.7683 90.4936 24.3141 90.5878 24.8975H90.7198C90.7198 24.5023 90.9082 23.9001 91.2663 23.0908L92.0012 22.8274C92.6608 22.7709 93 22.6768 93 22.5639L91.3982 22.1687C91.2097 22.1687 90.9647 21.5477 90.6632 20.2868H90.5878Z" fill="url(#paint5_linear_1151_251)"/>
<defs>
<linearGradient id="paint0_linear_1151_251" x1="94.8784" y1="6.42355" x2="-1.57258" y2="44.2524" gradientUnits="userSpaceOnUse">
<stop stop-color="#EAD4C6"/>
<stop offset="1" stop-color="#767BE3"/>
</linearGradient>
<linearGradient id="paint1_linear_1151_251" x1="94.8784" y1="6.42355" x2="-1.57258" y2="44.2524" gradientUnits="userSpaceOnUse">
<stop stop-color="#EAD4C6"/>
<stop offset="1" stop-color="#767BE3"/>
</linearGradient>
<linearGradient id="paint2_linear_1151_251" x1="94.8784" y1="6.42355" x2="-1.57258" y2="44.2524" gradientUnits="userSpaceOnUse">
<stop stop-color="#EAD4C6"/>
<stop offset="1" stop-color="#767BE3"/>
</linearGradient>
<linearGradient id="paint3_linear_1151_251" x1="94.8784" y1="6.42355" x2="-1.57258" y2="44.2524" gradientUnits="userSpaceOnUse">
<stop stop-color="#EAD4C6"/>
<stop offset="1" stop-color="#767BE3"/>
</linearGradient>
<linearGradient id="paint4_linear_1151_251" x1="94.8784" y1="6.42355" x2="-1.57258" y2="44.2524" gradientUnits="userSpaceOnUse">
<stop stop-color="#EAD4C6"/>
<stop offset="1" stop-color="#767BE3"/>
</linearGradient>
<linearGradient id="paint5_linear_1151_251" x1="94.8784" y1="6.42355" x2="-1.57258" y2="44.2524" gradientUnits="userSpaceOnUse">
<stop stop-color="#EAD4C6"/>
<stop offset="1" stop-color="#767BE3"/>
</linearGradient>
</defs>
</svg>
